# xmcd
#
# Track frame offsets:
#	150
#	18337
#	35257
#	51905
#	70540
#	85910
#	103129
#	119625
#	139968
#	166443
#
# Disc length: 2477 seconds
#
# Revision: 2
# Processed by: cddbd v1.4PL0 Copyright (c) Steve Scherf et al.
# Submitted via: audiograbber 1.82.01
#
DISCID=8709ab0a
DTITLE=Billie Joyce - Love Tone
DYEAR=2002
DGENRE=Blues
TTITLE0=Peace
TTITLE1=What Really Matters
TTITLE2=Mad
TTITLE3=I Surrender
TTITLE4=Elixir
TTITLE5=Turn it On
TTITLE6=Love Alarm
TTITLE7=Find it in Yourself
TTITLE8=Original Sin
TTITLE9=Yotin Awasis
EXTD=
EXTT0=
EXTT1=
EXTT2=
EXTT3=
EXTT4=
EXTT5=
EXTT6=
EXTT7=
EXTT8=
EXTT9=
PLAYORDER=
